{"title":"Clue(1985)MPEG-4[DaScubaDude]","uid":14790836,"size":973735731,"categoryP":"video","categoryS":"movies","magnet":"?xt=urn:btih:640c28a8d76b4dc324bdd4b6606dd2e5395a85f4&amp;dn=Clue%281985%29MPEG-4%5BDaScubaDude%5D&amp;tr=udp%3A%2F%2Ftracker.leechers-paradise.org%3A6969&amp;tr=udp%3A%2F%2Fzer0day.ch%3A1337&amp;tr=udp%3A%2F%2Fopen.demonii.com%3A1337&amp;tr=udp%3A%2F%2Ftracker.coppersurfer.tk%3A6969&amp;tr=udp%3A%2F%2Fexodus.desync.com%3A6969","seeders":0,"leechers":0,"uploader":"dascuba","files":1,"time":1465061241,"description":"Clue (1985)\r\nPG | 1h 34min | Comedy, Crime, Mystery | 13 December 1985 (USA)\r\nSix guests are invited to a strange house and must cooperate with the staff to solve a murder mystery.\r\nDirector: Jonathan Lynn\r\nWriters: John Landis (story), Jonathan Lynn (story) |\r\nStars: Eileen Brennan, Tim Curry, Madeline Kahn |\r\n\r\n\r\nGeneral\r\nComplete name                            : ClueCLUE_Title1.mp4\r\nFormat                                   : MPEG-4\r\nFormat profile                           : Base Media\r\nCodec ID                                 : isom (isom/iso2/avc1/mp41)\r\nFile size                                : 929 MiB\r\nDuration                                 : 1h 36mn\r\nOverall bit rate                         : 1 342 Kbps\r\nMovie name                               : CLUE\r\nGenre                                    : Comedy\r\nWriting application                      : Lavf54.6.100\r\n\r\nVideo\r\nID                                       : 1\r\nFormat                                   : AVC\r\nFormat/Info                              : Advanced Video Codec\r\nFormat profile                           :   \r\nFormat settings, CABAC                   : No\r\nFormat settings, ReFrames                : 6 frames\r\nCodec ID                                 : avc1\r\nCodec ID/Info                            : Advanced Video Coding\r\nDuration                                 : 1h 36mn\r\nBit rate                                 : 1 203 Kbps\r\nWidth                                    : 720 pixels\r\nHeight                                   : 404 pixels\r\nDisplay aspect ratio                     : 16:9\r\nFrame rate mode                          : Constant\r\nFrame rate                               : 29.970 (30000/1001) fps\r\nColor space                              : YUV\r\nChroma subsampling                       : 4:2:0\r\nBit depth                                : 8 bits\r\nScan type                                : Progressive\r\nBits/(Pixel*Frame)                       : 0.138\r\nStream size                              : 832 MiB (90%)\r\n\r\nAudio\r\nID                                       : 2\r\nFormat                                   : AAC\r\nFormat/Info                              : Advanced Audio Codec\r\nFormat profile                           : LC\r\nCodec ID                                 : 40\r\nDuration                                 : 1h 36mn\r\nBit rate mode                            : Constant\r\nBit rate                                 : 132 Kbps\r\nChannel(s)                               : 2 channels\r\nChannel positions                        : Front: L R\r\nSampling rate                            : 44.1 KHz\r\nFrame rate                               : 43.066 fps (1024 spf)\r\nCompression mode                         : Lossy\r\nStream size                              : 91.7 MiB (10%)\r\nDefault                                  : Yes\r\nAlternate group                          : 1","torrent":{"xt":"urn:btih:640c28a8d76b4dc324bdd4b6606dd2e5395a85f4","amp;dn":"Clue%281985%29MPEG-4%5BDaScubaDude%5D","amp;tr":["udp%3A%2F%2Ftracker.leechers-paradise.org%3A6969","udp%3A%2F%2Fzer0day.ch%3A1337","udp%3A%2F%2Fopen.demonii.com%3A1337","udp%3A%2F%2Ftracker.coppersurfer.tk%3A6969","udp%3A%2F%2Fexodus.desync.com%3A6969"],"infoHash":"640c28a8d76b4dc324bdd4b6606dd2e5395a85f4","infoHashBuffer":{"type":"Buffer","data":[100,12,40,168,215,107,77,195,36,189,212,182,96,109,210,229,57,90,133,244]},"announce":[],"urlList":[]}}